<svg width="950px" height="256px" viewBox="0 0 950 256" version="1.1" xmlns="http://www.w3.org/2000/svg" xmlns:xlink="http://www.w3.org/1999/xlink"><g stroke="none" stroke-width="1" fill="#F1FCFF" fill-rule="evenodd"><path d="M714,60 L723.997217,60 C735.044449,60 744,51.0481236 744,40 L753.993226,40 C765.042662,40 774,31.0481236 774,20 C774,8.954305 765.036534,0 753.993226,0 L714.006774,0 C702.957338,0 694,8.95187636 694,20 L624.002783,20 C612.955551,20 604,28.9518764 604,40 L534.000128,40 C522.954362,40 514,48.9518764 514,60 C514,71.045695 522.949466,80 534.000128,80 L693.999872,80 C705.045638,80 714,71.0481236 714,60 Z M817,140 L826.997217,140 C838.044449,140 847,148.951876 847,160 L856.993226,160 C868.042662,160 877,168.951876 877,180 C877,191.045695 868.036534,200 856.993226,200 L817.006774,200 C805.957338,200 797,191.048124 797,180 L727.002783,180 C715.955551,180 707,171.048124 707,160 L637.000128,160 C625.954362,160 617,151.048124 617,140 C617,128.954305 625.949466,120 637.000128,120 L796.999872,120 C808.045638,120 817,128.951876 817,140 Z M183,40 C183,51.0481236 191.955551,60 203.002783,60 L213,60 C213,71.0481236 221.954362,80 233.000128,80 L392.999872,80 C404.050534,80 413,71.045695 413,60 C413,48.9518764 404.045638,40 392.999872,40 L323,40 C323,28.9518764 314.044449,20 302.997217,20 L233,20 C233,8.95187636 224.042662,0 212.993226,0 L173.006774,0 C161.963466,0 153,8.954305 153,20 C153,31.0481236 161.957338,40 173.006774,40 L183,40 Z M538,216 C538,227.048124 529.044449,236 517.997217,236 L508,236 C508,247.048124 499.045638,256 487.999872,256 L328.000128,256 C316.949466,256 308,247.045695 308,236 C308,224.951876 316.954362,216 328.000128,216 L398,216 C398,204.951876 406.955551,196 418.002783,196 L488,196 C488,184.951876 496.957338,176 508.006774,176 L547.993226,176 C559.036534,176 568,184.954305 568,196 C568,207.048124 559.042662,216 547.993226,216 L538,216 Z M30,160 C30,171.048124 38.9555508,180 50.0027826,180 L60,180 C60,191.048124 68.9543622,200 80.0001277,200 L239.999872,200 C251.050534,200 260,191.045695 260,180 C260,168.951876 251.045638,160 239.999872,160 L170,160 C170,148.951876 161.044449,140 149.997217,140 L80,140 C80,128.951876 71.042662,120 59.9932256,120 L20.0067744,120 C8.96346573,120 0,128.954305 0,140 C0,151.048124 8.95733801,160 20.0067744,160 L30,160 Z"></path></g></svg>
