<svg width="840px" height="280px" viewBox="0 0 840 280" version="1.1" xmlns="http://www.w3.org/2000/svg" xmlns:xlink="http://www.w3.org/1999/xlink"><g stroke="none" stroke-width="1" fill="#C7F0F9" fill-rule="evenodd"><path d="M586,337 C586,345.284271 577.049472,352 566.002235,352 L553.497765,352 C546.093985,352 539.629939,347.979335 536.172846,342 L565.999936,342 C571.522819,342 576,337.524062 576,332 C576,326.477153 571.525267,322 565.999936,322 L561,322 C561,316.477153 556.514699,312 551.007903,312 L546,312 C546,306.477153 541.527924,302 536.009493,302 L515.990507,302 C510.472902,302 506,306.475938 506,312 L500.992097,312 C495.473614,312 491,316.475938 491,322 L486.000064,322 C480.477181,322 476,326.475938 476,332 C476,337.522847 480.474733,342 486.000064,342 L518.5,342 L518.5,342.006168 C518.5,355.80988 529.684115,367 543.49065,367 L565.998954,367 C577.045227,367 586,375.963765 586,382 L586,469.757576 C586,480.10303 586,487 586,487 L596,487 L625.5,487 L636,487 C636,487 636,480.10303 636,469.757576 L636,242 C636,235.963765 644.954773,227 656.001046,227 L678.50935,227 C692.315885,227 703.5,215.80988 703.5,202.006168 L703.5,202 L735.999936,202 C741.525267,202 746,197.522847 746,192 C746,186.475938 741.522819,182 735.999936,182 L731,182 C731,176.475938 726.526386,172 721.007903,172 L716,172 C716,166.475938 711.527098,162 706.009493,162 L685.990507,162 C680.472076,162 676,166.477153 676,172 L670.992097,172 C665.485301,172 661,176.477153 661,182 L656.000064,182 C650.474733,182 646,186.477153 646,192 C646,197.524062 650.477181,202 656.000064,202 L685.826519,202 C682.369271,207.979827 675.905562,212 668.502235,212 L655.997765,212 C644.950528,212 636,205.284271 636,197 L636,-82 L586,-82 L586,57.0000057 C586,65.2842713 577.049472,72 566.002235,72 L553.497765,72 C546.093985,72 539.629939,67.9793354 536.172846,62 L565.999936,62 C571.522819,62 576,57.5240618 576,52 C576,46.4771525 571.525267,42 565.999936,42 L561,42 C561,36.4771525 556.514699,32 551.007903,32 L546,32 C546,26.4771525 541.527924,22 536.009493,22 L515.990507,22 C510.472902,22 506,26.4759382 506,32 L500.992097,32 C495.473614,32 491,36.4759382 491,42 L486.000064,42 C480.477181,42 476,46.4759382 476,52 C476,57.5228475 480.474733,62 486.000064,62 L518.5,62 L518.5,62.0061681 C518.5,75.8098803 529.684115,87 543.49065,87 L565.998954,87 C577.045227,87 586,95.9637647 586,102 L586,337.000006 Z" transform="translate(611, 202.5) scale(-1, 1) translate(-611, -202.5) "></path><path d="M166,337 C166,345.284271 157.049472,352 146.002235,352 L133.497765,352 C126.093985,352 119.629939,347.979335 116.172846,342 L145.999936,342 C151.522819,342 156,337.524062 156,332 C156,326.477153 151.525267,322 145.999936,322 L141,322 C141,316.477153 136.514699,312 131.007903,312 L126,312 C126,306.477153 121.527924,302 116.009493,302 L95.9905068,302 C90.4729022,302 86,306.475938 86,312 L80.9920972,312 C75.4736143,312 71,316.475938 71,322 L66.0000638,322 C60.4771811,322 56,326.475938 56,332 C56,337.522847 60.4747329,342 66.0000638,342 L98.5,342 L98.5,342.006168 C98.5,355.80988 109.684115,367 123.49065,367 L145.998954,367 C157.045227,367 166,375.963765 166,382 L166,469.757576 C166,480.10303 166,487 166,487 L176,487 L205.5,487 L216,487 C216,487 216,480.10303 216,469.757576 L216,242 C216,235.963765 224.954773,227 236.001046,227 L258.50935,227 C272.315885,227 283.5,215.80988 283.5,202.006168 L283.5,202 L315.999936,202 C321.525267,202 326,197.522847 326,192 C326,186.475938 321.522819,182 315.999936,182 L311,182 C311,176.475938 306.526386,172 301.007903,172 L296,172 C296,166.475938 291.527098,162 286.009493,162 L265.990507,162 C260.472076,162 256,166.477153 256,172 L250.992097,172 C245.485301,172 241,176.477153 241,182 L236.000064,182 C230.474733,182 226,186.477153 226,192 C226,197.524062 230.477181,202 236.000064,202 L265.826519,202 C262.369271,207.979827 255.905562,212 248.502235,212 L235.997765,212 C224.950528,212 216,205.284271 216,197 L216,-82 L166,-82 L166,57.0000057 C166,65.2842713 157.049472,72 146.002235,72 L133.497765,72 C126.093985,72 119.629939,67.9793354 116.172846,62 L145.999936,62 C151.522819,62 156,57.5240618 156,52 C156,46.4771525 151.525267,42 145.999936,42 L141,42 C141,36.4771525 136.514699,32 131.007903,32 L126,32 C126,26.4771525 121.527924,22 116.009493,22 L95.9905068,22 C90.4729022,22 86,26.4759382 86,32 L80.9920972,32 C75.4736143,32 71,36.4759382 71,42 L66.0000638,42 C60.4771811,42 56,46.4759382 56,52 C56,57.5228475 60.4747329,62 66.0000638,62 L98.5,62 L98.5,62.0061681 C98.5,75.8098803 109.684115,87 123.49065,87 L145.998954,87 C157.045227,87 166,95.9637647 166,102 L166,337.000006 Z"></path></g></svg>
