<?xml version="1.0" encoding="UTF-8"?>
<svg width="250px" height="160px" viewBox="0 0 250 160" version="1.1" xmlns="http://www.w3.org/2000/svg" xmlns:xlink="http://www.w3.org/1999/xlink">
    <!-- Generator: Sketch 40 (33762) - http://www.bohemiancoding.com/sketch -->
    <title>Path 3</title>
    <desc>Created with Sketch.</desc>
    <defs></defs>
    <g id="Symbols" stroke="none" stroke-width="1" fill="none" fill-rule="evenodd">
        <g id="Path-3">
            <path d="M0,70 L30,70 L30,79.9999892 C30,91.0456902 38.9522409,100 49.9968461,100 L121.002538,100 C128.733123,100 135,93.728013 135,86.0099411 L135,60 L165,60 L165,83.9920948 C165,109.401559 144.404605,130 119.000748,130 L49.9923533,130 C38.9508815,130 30,138.960353 30,150.000011 L30,160 L0,150 L0,70 Z" fill="#A17438"></path>
            <path d="M4,70 L-2.84217094e-14,70 L-2.84217094e-14,150 L30,160 L30,150.666667 L4,142 L4,70 Z M134.868953,87.9304312 C134.955355,87.3025042 135,86.6613736 135,86.0099411 L135,60 L139,60 L139,78.0099411 C139,81.8848396 137.420374,85.3952387 134.868953,87.9304312 Z M161.970303,100.447602 C155.350244,117.729737 138.60767,130 119.000748,130 L49.9923533,130 C43.7775323,130 38.225038,132.838758 34.5582113,137.289233 C36.6760994,128.520158 44.573599,122 53.9923533,122 L123.000748,122 C139.420218,122 153.830942,113.394952 161.970303,100.447602 Z" id="Combined-Shape" fill="#886332"></path>
            <path d="M19,70 L0,70 L0,150 L30,160 L30,157.333333 L8,150 L8,70 L19,70 Z M89.4996921,100 L121.002538,100 C128.733123,100 135,93.728013 135,86.0099411 L135,60 L154,60 L143,60 L143,86.0099411 C143,93.728013 136.733123,100 129.002538,100 L89.4996921,100 Z" id="Combined-Shape" fill="#BA8C4D"></path>
            <rect id="Rectangle-4" fill="#7EAD4F" x="50" y="40" width="200" height="40" rx="20"></rect>
            <rect id="Rectangle-4-Copy" fill="#99CC66" x="80" y="20" width="140" height="40" rx="20"></rect>
            <rect id="Rectangle-4-Copy-2" fill="#AFDD7F" x="110" y="0" width="80" height="40" rx="20"></rect>
            <rect id="Rectangle-6-Copy-2" fill="#AEDD7F" x="190" y="40" width="20" height="10" rx="5"></rect>
            <rect id="Rectangle-6-Copy-6" fill="#7EAD4F" x="160" y="10" width="20" height="10" rx="5"></rect>
            <rect id="Rectangle-6-Copy-4" fill="#99CC66" x="220" y="60" width="20" height="10" rx="5"></rect>
            <rect id="Rectangle-6-Copy-5" fill="#AEDD7F" x="60" y="60" width="20" height="10" rx="5"></rect>
            <rect id="Rectangle-6-Copy-3" fill="#7EAD4F" x="90" y="40" width="20" height="10" rx="5"></rect>
            <rect id="Rectangle-6-Copy" fill="#99CC66" x="120" y="20" width="10" height="10" rx="5"></rect>
        </g>
    </g>
</svg>