<svg width="100px" height="214px" viewBox="0 0 100 214" version="1.1" xmlns="http://www.w3.org/2000/svg" xmlns:xlink="http://www.w3.org/1999/xlink"><g stroke="none" stroke-width="1" fill="none" fill-rule="evenodd"><rect fill="#99CC66" x="0" y="174" width="100" height="40" rx="19"></rect><rect fill="#4A7DB0" x="23" y="152" width="18" height="46" rx="9"></rect><rect fill="#4A7DB0" x="57" y="152" width="18" height="46" rx="9"></rect><path d="M49,170 C73.8528137,170 94,149.852814 94,125 C94,100.147186 73.8528137,80 49,80 C24.1471863,80 4,100.147186 4,125 C4,149.852814 24.1471863,170 49,170 Z" fill="#3D6894"></path><rect fill="#B4352B" x="0" y="84" width="100" height="50"></rect><rect fill="#B4352B" x="0" y="34" width="100" height="100" rx="30"></rect><path d="M0.415344228,59 L99.5846347,59 C99.8578074,60.62711 100,62.2986151 100,64.0032973 L100,66.5016487 L100,69 L1.33226763e-15,69 L1.33226763e-15,66.5016487 L1.33226763e-15,64.0032973 C1.33226763e-15,62.2985894 0.142186439,60.627087 0.415344228,59 Z M13.4140258,39 L86.5860555,39 C90.4368542,41.5601863 93.6623849,44.9862017 95.9847302,49 L4.01520873,49 C6.33762335,44.9861041 9.56324398,41.5601333 13.4140258,39 Z M1.33226763e-15,119 L100,119 L100,129 L1.33226763e-15,129 L1.33226763e-15,119 Z M1.33226763e-15,99 L100,99 L100,109 L1.33226763e-15,109 L1.33226763e-15,99 Z M1.33226763e-15,79 L100,79 L100,89 L1.33226763e-15,89 L1.33226763e-15,79 Z" fill="#CF463B" opacity="0.5"></path><path d="M95,47.4140258 L95,134 L85,134 L85,38.0152087 C89.0138959,40.3376234 92.4398667,43.563244 95,47.4140258 Z M67.4983513,34 L65,34 L65,134 L75,134 L75,34.4153442 C73.372913,34.1421864 71.7014106,34 69.9967027,34 L67.4983513,34 Z M32.5016487,34 L35,34 L35,134 L25,134 L25,34.4153653 C26.62711,34.1421926 28.2986151,34 30.0032973,34 L32.5016487,34 Z M15,38.0152698 L15,134 L5,134 L5,47.4139445 C7.56018634,43.5631458 10.9862017,40.3376151 15,38.0152698 Z M45,34 L55,34 L55,134 L45,134 L45,34 Z" fill="#CF463B"></path><rect fill="#335D65" x="29" y="0" width="42" height="50" rx="21"></rect><rect fill="#FEB9A0" x="29" y="18" width="42" height="16"></rect><rect fill="#21444A" x="27" y="10" width="46" height="8" rx="4"></rect><path d="M29,34 L43,34 L43,58.001155 C43,61.3142256 40.3172241,64 37.0018149,64 L34.9981851,64 C31.685479,64 29,61.3112985 29,58.001155 L29,34 Z M43,34 L57,34 L57,58.001155 C57,61.3142256 54.3172241,64 51.0018149,64 L48.9981851,64 C45.685479,64 43,61.3112985 43,58.001155 L43,34 Z M57,34 L71,34 L71,58.001155 C71,61.3142256 68.3172241,64 65.0018149,64 L62.9981851,64 C59.685479,64 57,61.3112985 57,58.001155 L57,34 Z" fill="#000000"></path><rect fill="#FFB9A0" x="40" y="38" width="20" height="6" rx="3"></rect><circle fill="#FFFFFF" cx="59" cy="26" r="6"></circle><circle fill="#000000" cx="59" cy="26" r="2"></circle><circle fill="#FFFFFF" cx="41" cy="26" r="6"></circle><circle fill="#000000" cx="41" cy="26" r="2"></circle><rect fill="#000000" x="35" y="20" width="12" height="3" rx="1.5"></rect><rect fill="#000000" x="53" y="20" width="12" height="3" rx="1.5"></rect><rect fill="#DC8464" x="47" y="24" width="6" height="12" rx="3"></rect><rect fill="#DC8464" x="47" y="23" width="6" height="8"></rect><rect fill="#000000" x="17" y="186" width="24" height="12" rx="6"></rect><rect fill="#000000" x="23" y="186" width="18" height="12"></rect><rect fill="#000000" x="57" y="186" width="18" height="12"></rect><rect fill="#000000" x="17" y="192" width="24" height="6"></rect><rect fill="#000000" x="51" y="192" width="24" height="6"></rect><rect fill="#000000" x="51" y="186" width="24" height="12" rx="6"></rect><rect fill="#FFFFFF" opacity="0.3" x="21" y="190" width="10" height="4" rx="2"></rect><rect fill="#FFFFFF" opacity="0.3" x="55" y="190" width="10" height="4" rx="2"></rect></g></svg>
