<svg width="141px" height="170px" viewBox="0 0 141 170" version="1.1" xmlns="http://www.w3.org/2000/svg" xmlns:xlink="http://www.w3.org/1999/xlink"><g stroke="none" stroke-width="1" fill="none" fill-rule="evenodd"><rect fill="#99CC66" x="3" y="130" width="100" height="40" rx="19"></rect><path d="M52,170 C76.8528137,170 97,149.852814 97,125 C97,100.147186 76.8528137,80 52,80 C27.1471863,80 7,100.147186 7,125 C7,149.852814 27.1471863,170 52,170 Z" fill="#3D6894"></path><rect fill="#B4352B" x="3" y="34" width="100" height="100" rx="30"></rect><path d="M3.41534423,59 L102.584635,59 C102.857807,60.62711 103,62.2986151 103,64.0032973 L103,66.5016487 L103,69 L3,69 L3,66.5016487 L3,64.0032973 C3,62.2985894 3.14218644,60.627087 3.41534423,59 Z M16.4140258,39 L89.5860555,39 C93.4368542,41.5601863 96.6623849,44.9862017 98.9847302,49 L7.01520873,49 C9.33762335,44.9861041 12.563244,41.5601333 16.4140258,39 Z M3,119 L103,119 L103,129 L3,129 L3,119 Z M3,99 L103,99 L103,109 L3,109 L3,99 Z M3,79 L103,79 L103,89 L3,89 L3,79 Z" fill="#CF463B" opacity="0.5"></path><path d="M98,47.4140258 L98,134 L88,134 L88,38.0152087 C92.0138959,40.3376234 95.4398667,43.563244 98,47.4140258 Z M70.4983513,34 L68,34 L68,134 L78,134 L78,34.4153442 C76.372913,34.1421864 74.7014106,34 72.9967027,34 L70.4983513,34 Z M35.5016487,34 L38,34 L38,134 L28,134 L28,34.4153653 C29.62711,34.1421926 31.2986151,34 33.0032973,34 L35.5016487,34 Z M18,38.0152698 L18,134 L8,134 L8,47.4139445 C10.5601863,43.5631458 13.9862017,40.3376151 18,38.0152698 Z M48,34 L58,34 L58,134 L48,134 L48,34 Z" fill="#CF463B"></path><rect fill="#825F31" x="38" y="127" width="94" height="12" rx="6"></rect><rect fill="#CE453A" x="111" y="127" width="30" height="30"></rect><rect fill="#FFFFFF" x="111" y="156" width="30" height="12"></rect><rect fill="#FFFFFF" x="32" y="0" width="42" height="50" rx="21"></rect><rect fill="#FEB9A0" x="32" y="18" width="42" height="16"></rect><rect fill="#E7E7E7" x="30" y="10" width="46" height="8" rx="4"></rect><rect fill="#CF463B" x="60" y="12" width="10" height="4" rx="2"></rect><rect fill="#CF463B" x="43" y="4" width="6" height="4" rx="2"></rect><path d="M32,34 L46,34 L46,58.001155 C46,61.3142256 43.3172241,64 40.0018149,64 L37.9981851,64 C34.685479,64 32,61.3112985 32,58.001155 L32,34 Z M46,34 L60,34 L60,58.001155 C60,61.3142256 57.3172241,64 54.0018149,64 L51.9981851,64 C48.685479,64 46,61.3112985 46,58.001155 L46,34 Z M60,34 L74,34 L74,58.001155 C74,61.3142256 71.3172241,64 68.0018149,64 L65.9981851,64 C62.685479,64 60,61.3112985 60,58.001155 L60,34 Z" fill="#000000"></path><rect fill="#FFB9A0" x="43" y="38" width="20" height="6" rx="3"></rect><rect fill="#000000" x="38" y="20" width="12" height="3" rx="1.5"></rect><rect fill="#CF463B" x="40" y="25" width="8" height="3" rx="1.5"></rect><rect fill="#000000" x="56" y="20" width="12" height="3" rx="1.5"></rect><rect fill="#DB8464" x="58" y="25" width="8" height="3" rx="1.5"></rect><rect fill="#FFFFFF" x="50" y="23" width="6" height="8"></rect><rect fill="#FFFFFF" x="50" y="24" width="6" height="12" rx="3"></rect><rect fill="#E6E6E6" x="3" y="82" width="24" height="64" rx="12"></rect><rect fill="#FFFFFF" x="0" y="80" width="30" height="14" rx="4"></rect><rect fill="#CE453A" x="9" y="97" width="8" height="4" rx="2"></rect><rect fill="#CE453A" x="13" y="113" width="8" height="4" rx="2"></rect><rect fill="#FEB9A0" x="79" y="82" width="24" height="64" rx="12"></rect><rect fill="#FFFFFF" x="76" y="80" width="30" height="14" rx="4"></rect><rect fill="#000000" x="85" y="97" width="12" height="4" rx="2"></rect><rect fill="#000000" x="85" y="105" width="12" height="4" rx="2"></rect><rect fill="#000000" x="85" y="113" width="12" height="4" rx="2"></rect><rect fill="#000000" x="26" y="146" width="18" height="24" rx="9"></rect><rect fill="#FFFFFF" opacity="0.3" x="30" y="150" width="10" height="4" rx="2"></rect><rect fill="#FFFFFF" opacity="0.3" x="30" y="156" width="10" height="4" rx="2"></rect><rect fill="#FFFFFF" opacity="0.3" x="30" y="162" width="10" height="4" rx="2"></rect><rect fill="#000000" x="60" y="146" width="18" height="24" rx="9"></rect><rect fill="#FFFFFF" opacity="0.3" x="64" y="150" width="10" height="4" rx="2"></rect><rect fill="#FFFFFF" opacity="0.3" x="64" y="156" width="10" height="4" rx="2"></rect><rect fill="#FFFFFF" opacity="0.3" x="64" y="162" width="10" height="4" rx="2"></rect></g></svg>
